<svg width="1440" height="960" viewBox="0 0 1440 960" fill="none" xmlns="http://www.w3.org/2000/svg">
  <rect width="1440" height="960" fill="#101010"/>
  <rect x="0" y="0" width="1440" height="42" fill="#131313"/>
  <rect x="0" y="42" width="260" height="918" fill="#181818"/>
  <rect x="260" y="42" width="890" height="918" fill="#111111"/>
  <rect x="1150" y="42" width="290" height="918" fill="#181818"/>

  <circle cx="18" cy="21" r="6" fill="#EC6A5E"/>
  <circle cx="38" cy="21" r="6" fill="#F4BD50"/>
  <circle cx="58" cy="21" r="6" fill="#61C454"/>
  <text x="88" y="26" fill="#EEF2F5" font-family="SF Pro Display, Inter, sans-serif" font-size="14" font-weight="600">Lookup Review</text>
  <text x="1180" y="26" fill="#8D98A1" font-family="SF Pro Text, Inter, sans-serif" font-size="11">Commit once, then registry owns it</text>

  <text x="20" y="72" fill="#7A848D" font-family="SF Pro Text, Inter, sans-serif" font-size="10" letter-spacing="1.8">QUEUE</text>
  <rect x="12" y="84" width="236" height="34" rx="8" fill="#242424"/>
  <text x="24" y="105" fill="#F2F5F7" font-family="SF Pro Text, Inter, sans-serif" font-size="12" font-weight="600">Needs Review</text>
  <text x="196" y="105" fill="#D39B7A" font-family="SF Pro Text, Inter, sans-serif" font-size="11">1495</text>
  <rect x="12" y="130" width="236" height="60" rx="10" fill="#1E1E1E"/>
  <text x="24" y="154" fill="#F2F5F7" font-family="SF Pro Text, Inter, sans-serif" font-size="12" font-weight="600">0Y1A6380-Edit.jpg</text>
  <text x="24" y="174" fill="#8E99A1" font-family="SF Pro Text, Inter, sans-serif" font-size="10">Top candidate 0.78  Canon EOS R6m2</text>
  <rect x="12" y="198" width="236" height="60" rx="10" fill="#1B1B1B"/>
  <text x="24" y="222" fill="#C9D0D6" font-family="SF Pro Text, Inter, sans-serif" font-size="12">0Y1A5832-2.jpg</text>
  <text x="24" y="242" fill="#8E99A1" font-family="SF Pro Text, Inter, sans-serif" font-size="10">Top candidate 0.74  Same stem family</text>
  <rect x="12" y="266" width="236" height="60" rx="10" fill="#1B1B1B"/>
  <text x="24" y="290" fill="#C9D0D6" font-family="SF Pro Text, Inter, sans-serif" font-size="12">0Y1A5901.jpg</text>
  <text x="24" y="310" fill="#8E99A1" font-family="SF Pro Text, Inter, sans-serif" font-size="10">Top candidate 0.70  Filename only</text>

  <text x="20" y="358" fill="#7A848D" font-family="SF Pro Text, Inter, sans-serif" font-size="10" letter-spacing="1.8">FILTERS</text>
  <rect x="12" y="370" width="72" height="24" rx="12" fill="#242424"/>
  <text x="32" y="386" fill="#F2F5F7" font-family="SF Pro Text, Inter, sans-serif" font-size="11">Camera</text>
  <rect x="90" y="370" width="58" height="24" rx="12" fill="#C18A54"/>
  <text x="110" y="386" fill="#101417" font-family="SF Pro Text, Inter, sans-serif" font-size="11" font-weight="700">EXIF</text>
  <rect x="154" y="370" width="76" height="24" rx="12" fill="#242424"/>
  <text x="174" y="386" fill="#F2F5F7" font-family="SF Pro Text, Inter, sans-serif" font-size="11">Preview</text>

  <rect x="276" y="58" width="858" height="52" rx="10" fill="#171717" stroke="#232323"/>
  <text x="292" y="79" fill="#EEF2F5" font-family="SF Pro Display, Inter, sans-serif" font-size="16" font-weight="600">Compare Export Against Candidate RAW</text>
  <text x="292" y="97" fill="#8D98A1" font-family="SF Pro Text, Inter, sans-serif" font-size="11">Eagle-like shell, but the center pane becomes a dedicated review workflow.</text>
  <text x="948" y="89" fill="#8D98A1" font-family="SF Pro Text, Inter, sans-serif" font-size="11">1 of 1495</text>

  <rect x="276" y="126" width="858" height="802" rx="14" fill="#101010" stroke="#1E1E1E"/>
  <rect x="296" y="146" width="392" height="320" rx="12" fill="#1D1D1D"/>
  <rect x="722" y="146" width="392" height="320" rx="12" fill="#1D1D1D"/>
  <text x="312" y="170" fill="#F2F5F7" font-family="SF Pro Text, Inter, sans-serif" font-size="12" font-weight="600">Export</text>
  <text x="738" y="170" fill="#F2F5F7" font-family="SF Pro Text, Inter, sans-serif" font-size="12" font-weight="600">Best Candidate RAW</text>
  <rect x="312" y="182" width="360" height="252" rx="10" fill="url(#reviewA)"/>
  <rect x="738" y="182" width="360" height="252" rx="10" fill="url(#reviewB)"/>
  <text x="312" y="452" fill="#EFF3F6" font-family="SF Pro Text, Inter, sans-serif" font-size="12" font-weight="600">0Y1A6380-Edit.jpg</text>
  <text x="738" y="452" fill="#EFF3F6" font-family="SF Pro Text, Inter, sans-serif" font-size="12" font-weight="600">0Y1A6380.CR3</text>

  <rect x="296" y="490" width="818" height="120" rx="12" fill="#1D1D1D"/>
  <text x="312" y="514" fill="#7F8A93" font-family="SF Pro Text, Inter, sans-serif" font-size="10" letter-spacing="1.5">SIGNALS</text>
  <text x="312" y="540" fill="#9FD09A" font-family="SF Pro Text, Inter, sans-serif" font-size="12">Exact stem key</text>
  <text x="312" y="562" fill="#9FD09A" font-family="SF Pro Text, Inter, sans-serif" font-size="12">Camera model matches: Canon EOS R6m2</text>
  <text x="312" y="584" fill="#DCC194" font-family="SF Pro Text, Inter, sans-serif" font-size="12">Capture time differs, likely edited from older export session</text>
  <text x="740" y="540" fill="#EEF2F5" font-family="SF Pro Text, Inter, sans-serif" font-size="12">Score 0.78</text>
  <text x="740" y="562" fill="#EEF2F5" font-family="SF Pro Text, Inter, sans-serif" font-size="12">Threshold manual review</text>
  <text x="740" y="584" fill="#EEF2F5" font-family="SF Pro Text, Inter, sans-serif" font-size="12">If confirmed, future lookup is O(1)</text>

  <rect x="296" y="626" width="818" height="282" rx="12" fill="#1D1D1D"/>
  <text x="312" y="650" fill="#7F8A93" font-family="SF Pro Text, Inter, sans-serif" font-size="10" letter-spacing="1.5">ALTERNATE CANDIDATES</text>
  <rect x="312" y="666" width="786" height="38" rx="8" fill="#292929"/>
  <text x="328" y="690" fill="#EEF2F5" font-family="SF Pro Text, Inter, sans-serif" font-size="12">1. 0Y1A6380.CR3   0.78   exact stem, camera match</text>
  <rect x="312" y="712" width="786" height="38" rx="8" fill="#181818"/>
  <text x="328" y="736" fill="#C9D0D6" font-family="SF Pro Text, Inter, sans-serif" font-size="12">2. 0Y1A6388.CR3   0.41   same shoot, weaker similarity</text>
  <rect x="312" y="758" width="786" height="38" rx="8" fill="#181818"/>
  <text x="328" y="782" fill="#C9D0D6" font-family="SF Pro Text, Inter, sans-serif" font-size="12">3. 0Y1A6386.CR3   0.39   same camera, no stronger evidence</text>
  <rect x="312" y="818" width="124" height="34" rx="8" fill="#C18A54"/>
  <text x="346" y="840" fill="#101417" font-family="SF Pro Text, Inter, sans-serif" font-size="11" font-weight="700">Confirm Match</text>
  <rect x="444" y="818" width="92" height="34" rx="8" fill="#2A2A2A"/>
  <text x="474" y="840" fill="#EEF2F5" font-family="SF Pro Text, Inter, sans-serif" font-size="11">Skip</text>
  <rect x="544" y="818" width="134" height="34" rx="8" fill="#2A2A2A"/>
  <text x="574" y="840" fill="#EEF2F5" font-family="SF Pro Text, Inter, sans-serif" font-size="11">Locate Both</text>

  <text x="1170" y="72" fill="#7A848D" font-family="SF Pro Text, Inter, sans-serif" font-size="10" letter-spacing="1.8">DECISION</text>
  <rect x="1162" y="84" width="266" height="146" rx="10" fill="#1E1E1E"/>
  <text x="1178" y="108" fill="#EEF2F5" font-family="SF Pro Text, Inter, sans-serif" font-size="12" font-weight="600">0Y1A6380.CR3</text>
  <text x="1178" y="132" fill="#8E99A1" font-family="SF Pro Text, Inter, sans-serif" font-size="11">Canon EOS R6m2</text>
  <text x="1178" y="154" fill="#8E99A1" font-family="SF Pro Text, Inter, sans-serif" font-size="11">6000 × 4000</text>
  <text x="1178" y="176" fill="#A9D5A8" font-family="SF Pro Text, Inter, sans-serif" font-size="11">Manual review candidate</text>

  <text x="1170" y="266" fill="#7A848D" font-family="SF Pro Text, Inter, sans-serif" font-size="10" letter-spacing="1.8">FEATURE VECTOR</text>
  <rect x="1162" y="278" width="266" height="190" rx="10" fill="#1E1E1E"/>
  <text x="1178" y="304" fill="#8E99A1" font-family="SF Pro Text, Inter, sans-serif" font-size="10">exact_stem_key</text>
  <text x="1366" y="304" fill="#9FD09A" font-family="SF Pro Text, Inter, sans-serif" font-size="10">1.00</text>
  <text x="1178" y="332" fill="#8E99A1" font-family="SF Pro Text, Inter, sans-serif" font-size="10">alnum_stem_key</text>
  <text x="1366" y="332" fill="#9FD09A" font-family="SF Pro Text, Inter, sans-serif" font-size="10">1.00</text>
  <text x="1178" y="360" fill="#8E99A1" font-family="SF Pro Text, Inter, sans-serif" font-size="10">stem_similarity</text>
  <text x="1366" y="360" fill="#9FD09A" font-family="SF Pro Text, Inter, sans-serif" font-size="10">0.89</text>
  <text x="1178" y="388" fill="#8E99A1" font-family="SF Pro Text, Inter, sans-serif" font-size="10">camera_model</text>
  <text x="1366" y="388" fill="#9FD09A" font-family="SF Pro Text, Inter, sans-serif" font-size="10">1.00</text>
  <text x="1178" y="416" fill="#8E99A1" font-family="SF Pro Text, Inter, sans-serif" font-size="10">capture_time</text>
  <text x="1366" y="416" fill="#DCC194" font-family="SF Pro Text, Inter, sans-serif" font-size="10">0.00</text>

  <text x="1170" y="504" fill="#7A848D" font-family="SF Pro Text, Inter, sans-serif" font-size="10" letter-spacing="1.8">POLICY</text>
  <rect x="1162" y="516" width="266" height="102" rx="10" fill="#1E1E1E"/>
  <text x="1178" y="542" fill="#EEF2F5" font-family="SF Pro Text, Inter, sans-serif" font-size="11">Inference can be fuzzy once.</text>
  <text x="1178" y="566" fill="#EEF2F5" font-family="SF Pro Text, Inter, sans-serif" font-size="11">Registry write makes the mapping authoritative.</text>

  <text x="1170" y="654" fill="#7A848D" font-family="SF Pro Text, Inter, sans-serif" font-size="10" letter-spacing="1.8">SHORTCUTS</text>
  <rect x="1162" y="666" width="266" height="108" rx="10" fill="#1E1E1E"/>
  <text x="1178" y="692" fill="#EEF2F5" font-family="SF Pro Text, Inter, sans-serif" font-size="11">Return  Confirm</text>
  <text x="1178" y="716" fill="#EEF2F5" font-family="SF Pro Text, Inter, sans-serif" font-size="11">Space   Next candidate</text>
  <text x="1178" y="740" fill="#EEF2F5" font-family="SF Pro Text, Inter, sans-serif" font-size="11">L       Locate files</text>

  <defs>
    <linearGradient id="reviewA" x1="312" y1="182" x2="672" y2="434" gradientUnits="userSpaceOnUse"><stop stop-color="#5D778A"/><stop offset="1" stop-color="#D4B088"/></linearGradient>
    <linearGradient id="reviewB" x1="738" y1="182" x2="1098" y2="434" gradientUnits="userSpaceOnUse"><stop stop-color="#536B78"/><stop offset="1" stop-color="#C8A279"/></linearGradient>
  </defs>
</svg>
