<svg width="1440" height="960" viewBox="0 0 1440 960" fill="none" xmlns="http://www.w3.org/2000/svg">
  <rect width="1440" height="960" fill="#101010"/>
  <rect x="0" y="0" width="1440" height="42" fill="#131313"/>
  <rect x="0" y="42" width="248" height="918" fill="#181818"/>
  <rect x="248" y="42" width="928" height="918" fill="#111111"/>
  <rect x="1176" y="42" width="264" height="918" fill="#181818"/>

  <circle cx="18" cy="21" r="6" fill="#EC6A5E"/>
  <circle cx="38" cy="21" r="6" fill="#F4BD50"/>
  <circle cx="58" cy="21" r="6" fill="#61C454"/>
  <text x="88" y="26" fill="#EEF2F5" font-family="SF Pro Display, Inter, sans-serif" font-size="14" font-weight="600">Post-Export Workspace</text>
  <rect x="520" y="9" width="332" height="24" rx="12" fill="#1B1B1B" stroke="#242424"/>
  <text x="542" y="25" fill="#7D8892" font-family="SF Pro Text, Inter, sans-serif" font-size="11">Search assets, shoots, captions, publish drafts</text>
  <text x="1262" y="26" fill="#89949D" font-family="SF Pro Text, Inter, sans-serif" font-size="11">Matched 1597 / Unmatched 1495</text>

  <text x="20" y="72" fill="#7A848D" font-family="SF Pro Text, Inter, sans-serif" font-size="10" letter-spacing="1.8">LIBRARY</text>
  <rect x="12" y="84" width="224" height="28" rx="8" fill="#242424"/>
  <text x="24" y="102" fill="#F2F5F7" font-family="SF Pro Text, Inter, sans-serif" font-size="12" font-weight="600">All Assets</text>
  <text x="196" y="102" fill="#9CA6AE" font-family="SF Pro Text, Inter, sans-serif" font-size="11">10658</text>
  <text x="24" y="132" fill="#C5CCD2" font-family="SF Pro Text, Inter, sans-serif" font-size="12">Recently Added</text>
  <text x="196" y="132" fill="#7D8892" font-family="SF Pro Text, Inter, sans-serif" font-size="11">328</text>
  <text x="24" y="160" fill="#C5CCD2" font-family="SF Pro Text, Inter, sans-serif" font-size="12">Favorites</text>
  <text x="196" y="160" fill="#7D8892" font-family="SF Pro Text, Inter, sans-serif" font-size="11">42</text>
  <text x="24" y="188" fill="#C5CCD2" font-family="SF Pro Text, Inter, sans-serif" font-size="12">Needs Review</text>
  <text x="196" y="188" fill="#D39B7A" font-family="SF Pro Text, Inter, sans-serif" font-size="11">1495</text>

  <text x="20" y="236" fill="#7A848D" font-family="SF Pro Text, Inter, sans-serif" font-size="10" letter-spacing="1.8">SMART COLLECTIONS</text>
  <rect x="12" y="248" width="224" height="26" rx="8" fill="#1E1E1E"/>
  <text x="24" y="265" fill="#F2F5F7" font-family="SF Pro Text, Inter, sans-serif" font-size="12">Matched Exports</text>
  <text x="196" y="265" fill="#7D8892" font-family="SF Pro Text, Inter, sans-serif" font-size="11">1597</text>
  <rect x="12" y="280" width="224" height="26" rx="8" fill="#1E1E1E"/>
  <text x="24" y="297" fill="#F2F5F7" font-family="SF Pro Text, Inter, sans-serif" font-size="12">Unmatched Queue</text>
  <text x="196" y="297" fill="#D39B7A" font-family="SF Pro Text, Inter, sans-serif" font-size="11">1495</text>
  <rect x="12" y="312" width="224" height="26" rx="8" fill="#1E1E1E"/>
  <text x="24" y="329" fill="#F2F5F7" font-family="SF Pro Text, Inter, sans-serif" font-size="12">Has Preview</text>
  <text x="196" y="329" fill="#7D8892" font-family="SF Pro Text, Inter, sans-serif" font-size="11">866</text>
  <rect x="12" y="344" width="224" height="26" rx="8" fill="#1E1E1E"/>
  <text x="24" y="361" fill="#F2F5F7" font-family="SF Pro Text, Inter, sans-serif" font-size="12">Pending Publish</text>
  <text x="196" y="361" fill="#7D8892" font-family="SF Pro Text, Inter, sans-serif" font-size="11">214</text>

  <text x="20" y="410" fill="#7A848D" font-family="SF Pro Text, Inter, sans-serif" font-size="10" letter-spacing="1.8">FOLDERS</text>
  <text x="24" y="434" fill="#C5CCD2" font-family="SF Pro Text, Inter, sans-serif" font-size="12">RAW / 2026</text>
  <text x="196" y="434" fill="#7D8892" font-family="SF Pro Text, Inter, sans-serif" font-size="11">7566</text>
  <text x="40" y="460" fill="#F2F5F7" font-family="SF Pro Text, Inter, sans-serif" font-size="12">260111 Monterey</text>
  <text x="196" y="460" fill="#7D8892" font-family="SF Pro Text, Inter, sans-serif" font-size="11">482</text>
  <text x="40" y="486" fill="#C5CCD2" font-family="SF Pro Text, Inter, sans-serif" font-size="12">260110 San Francisco</text>
  <text x="196" y="486" fill="#7D8892" font-family="SF Pro Text, Inter, sans-serif" font-size="11">318</text>
  <text x="24" y="524" fill="#C5CCD2" font-family="SF Pro Text, Inter, sans-serif" font-size="12">Export</text>
  <text x="196" y="524" fill="#7D8892" font-family="SF Pro Text, Inter, sans-serif" font-size="11">3092</text>

  <text x="20" y="572" fill="#7A848D" font-family="SF Pro Text, Inter, sans-serif" font-size="10" letter-spacing="1.8">CONTENT</text>
  <text x="24" y="596" fill="#C5CCD2" font-family="SF Pro Text, Inter, sans-serif" font-size="12">Topics</text>
  <text x="24" y="622" fill="#C5CCD2" font-family="SF Pro Text, Inter, sans-serif" font-size="12">Caption Drafts</text>
  <text x="24" y="648" fill="#C5CCD2" font-family="SF Pro Text, Inter, sans-serif" font-size="12">Cover Variants</text>
  <text x="24" y="674" fill="#C5CCD2" font-family="SF Pro Text, Inter, sans-serif" font-size="12">Platform State</text>

  <rect x="264" y="58" width="896" height="34" rx="8" fill="#171717" stroke="#232323"/>
  <rect x="276" y="64" width="68" height="22" rx="11" fill="#C18A54"/>
  <text x="298" y="79" fill="#101417" font-family="SF Pro Text, Inter, sans-serif" font-size="11" font-weight="700">All</text>
  <rect x="350" y="64" width="82" height="22" rx="11" fill="#242424"/>
  <text x="374" y="79" fill="#E7EDF1" font-family="SF Pro Text, Inter, sans-serif" font-size="11">Matched</text>
  <rect x="438" y="64" width="94" height="22" rx="11" fill="#242424"/>
  <text x="462" y="79" fill="#E7EDF1" font-family="SF Pro Text, Inter, sans-serif" font-size="11">Unmatched</text>
  <rect x="568" y="64" width="96" height="22" rx="11" fill="#242424"/>
  <text x="594" y="79" fill="#E7EDF1" font-family="SF Pro Text, Inter, sans-serif" font-size="11">Has Preview</text>
  <text x="916" y="79" fill="#88929B" font-family="SF Pro Text, Inter, sans-serif" font-size="11">Sort Capture Time</text>
  <text x="1024" y="79" fill="#88929B" font-family="SF Pro Text, Inter, sans-serif" font-size="11">Size M</text>

  <rect x="264" y="104" width="896" height="840" rx="14" fill="#101010" stroke="#1E1E1E"/>

  <g>
    <rect x="280" y="120" width="132" height="164" rx="10" fill="#1D1D1D"/>
    <rect x="280" y="120" width="132" height="124" rx="10" fill="url(#a)"/>
    <text x="288" y="260" fill="#EDF2F5" font-family="SF Pro Text, Inter, sans-serif" font-size="11" font-weight="600">0Y1A6380-Edit</text>
    <text x="288" y="276" fill="#9EABB3" font-family="SF Pro Text, Inter, sans-serif" font-size="10">Matched</text>
  </g>
  <g>
    <rect x="424" y="120" width="132" height="164" rx="10" fill="#1D1D1D"/>
    <rect x="424" y="120" width="132" height="124" rx="10" fill="url(#b)"/>
    <text x="432" y="260" fill="#EDF2F5" font-family="SF Pro Text, Inter, sans-serif" font-size="11" font-weight="600">0Y1A6352</text>
    <text x="432" y="276" fill="#9EABB3" font-family="SF Pro Text, Inter, sans-serif" font-size="10">Export</text>
  </g>
  <g>
    <rect x="568" y="120" width="132" height="164" rx="10" fill="#1D1D1D" stroke="#C18A54" stroke-width="2"/>
    <rect x="568" y="120" width="132" height="124" rx="10" fill="url(#c)"/>
    <text x="576" y="260" fill="#EDF2F5" font-family="SF Pro Text, Inter, sans-serif" font-size="11" font-weight="600">0Y1A6360</text>
    <text x="576" y="276" fill="#D8B080" font-family="SF Pro Text, Inter, sans-serif" font-size="10">Selected</text>
  </g>
  <g>
    <rect x="712" y="120" width="132" height="164" rx="10" fill="#1D1D1D"/>
    <rect x="712" y="120" width="132" height="124" rx="10" fill="url(#d)"/>
    <text x="720" y="260" fill="#EDF2F5" font-family="SF Pro Text, Inter, sans-serif" font-size="11" font-weight="600">0Y1A0040</text>
    <text x="720" y="276" fill="#D39B7A" font-family="SF Pro Text, Inter, sans-serif" font-size="10">Unmatched</text>
  </g>
  <g>
    <rect x="856" y="120" width="132" height="164" rx="10" fill="#1D1D1D"/>
    <rect x="856" y="120" width="132" height="124" rx="10" fill="url(#e)"/>
    <text x="864" y="260" fill="#EDF2F5" font-family="SF Pro Text, Inter, sans-serif" font-size="11" font-weight="600">0Y1A5686</text>
    <text x="864" y="276" fill="#9EABB3" font-family="SF Pro Text, Inter, sans-serif" font-size="10">Matched</text>
  </g>
  <g>
    <rect x="1000" y="120" width="132" height="164" rx="10" fill="#1D1D1D"/>
    <rect x="1000" y="120" width="132" height="124" rx="10" fill="url(#f)"/>
    <text x="1008" y="260" fill="#EDF2F5" font-family="SF Pro Text, Inter, sans-serif" font-size="11" font-weight="600">0Y1A5832-2</text>
    <text x="1008" y="276" fill="#9EABB3" font-family="SF Pro Text, Inter, sans-serif" font-size="10">Variant</text>
  </g>

  <g>
    <rect x="280" y="296" width="132" height="164" rx="10" fill="#1D1D1D"/>
    <rect x="280" y="296" width="132" height="124" rx="10" fill="url(#g)"/>
    <text x="288" y="436" fill="#EDF2F5" font-family="SF Pro Text, Inter, sans-serif" font-size="11" font-weight="600">0Y1A5901</text>
  </g>
  <g>
    <rect x="424" y="296" width="132" height="164" rx="10" fill="#1D1D1D"/>
    <rect x="424" y="296" width="132" height="124" rx="10" fill="url(#h)"/>
    <text x="432" y="436" fill="#EDF2F5" font-family="SF Pro Text, Inter, sans-serif" font-size="11" font-weight="600">0Y1A5960</text>
  </g>
  <g>
    <rect x="568" y="296" width="132" height="164" rx="10" fill="#1D1D1D"/>
    <rect x="568" y="296" width="132" height="124" rx="10" fill="url(#i)"/>
    <text x="576" y="436" fill="#EDF2F5" font-family="SF Pro Text, Inter, sans-serif" font-size="11" font-weight="600">0Y1A6011</text>
  </g>
  <g>
    <rect x="712" y="296" width="132" height="164" rx="10" fill="#1D1D1D"/>
    <rect x="712" y="296" width="132" height="124" rx="10" fill="url(#j)"/>
    <text x="720" y="436" fill="#EDF2F5" font-family="SF Pro Text, Inter, sans-serif" font-size="11" font-weight="600">0Y1A6039</text>
  </g>
  <g>
    <rect x="856" y="296" width="132" height="164" rx="10" fill="#1D1D1D"/>
    <rect x="856" y="296" width="132" height="124" rx="10" fill="url(#k)"/>
    <text x="864" y="436" fill="#EDF2F5" font-family="SF Pro Text, Inter, sans-serif" font-size="11" font-weight="600">0Y1A6102</text>
  </g>
  <g>
    <rect x="1000" y="296" width="132" height="164" rx="10" fill="#1D1D1D"/>
    <rect x="1000" y="296" width="132" height="124" rx="10" fill="url(#l)"/>
    <text x="1008" y="436" fill="#EDF2F5" font-family="SF Pro Text, Inter, sans-serif" font-size="11" font-weight="600">0Y1A6155</text>
  </g>

  <g>
    <rect x="280" y="472" width="132" height="164" rx="10" fill="#1D1D1D"/>
    <rect x="280" y="472" width="132" height="124" rx="10" fill="url(#m)"/>
    <text x="288" y="612" fill="#EDF2F5" font-family="SF Pro Text, Inter, sans-serif" font-size="11" font-weight="600">0Y1A6218</text>
  </g>
  <g>
    <rect x="424" y="472" width="132" height="164" rx="10" fill="#1D1D1D"/>
    <rect x="424" y="472" width="132" height="124" rx="10" fill="url(#n)"/>
    <text x="432" y="612" fill="#EDF2F5" font-family="SF Pro Text, Inter, sans-serif" font-size="11" font-weight="600">0Y1A6290</text>
  </g>
  <g>
    <rect x="568" y="472" width="132" height="164" rx="10" fill="#1D1D1D"/>
    <rect x="568" y="472" width="132" height="124" rx="10" fill="url(#o)"/>
    <text x="576" y="612" fill="#EDF2F5" font-family="SF Pro Text, Inter, sans-serif" font-size="11" font-weight="600">0Y1A6331</text>
  </g>
  <g>
    <rect x="712" y="472" width="132" height="164" rx="10" fill="#1D1D1D"/>
    <rect x="712" y="472" width="132" height="124" rx="10" fill="url(#p)"/>
    <text x="720" y="612" fill="#EDF2F5" font-family="SF Pro Text, Inter, sans-serif" font-size="11" font-weight="600">0Y1A6358</text>
  </g>
  <g>
    <rect x="856" y="472" width="132" height="164" rx="10" fill="#1D1D1D"/>
    <rect x="856" y="472" width="132" height="124" rx="10" fill="url(#q)"/>
    <text x="864" y="612" fill="#EDF2F5" font-family="SF Pro Text, Inter, sans-serif" font-size="11" font-weight="600">0Y1A6370</text>
  </g>
  <g>
    <rect x="1000" y="472" width="132" height="164" rx="10" fill="#1D1D1D"/>
    <rect x="1000" y="472" width="132" height="124" rx="10" fill="url(#r)"/>
    <text x="1008" y="612" fill="#EDF2F5" font-family="SF Pro Text, Inter, sans-serif" font-size="11" font-weight="600">0Y1A6388</text>
  </g>

  <rect x="280" y="898" width="852" height="28" rx="8" fill="#171717" stroke="#232323"/>
  <text x="294" y="916" fill="#AEB7BE" font-family="SF Pro Text, Inter, sans-serif" font-size="11">0Y1A6360.CR3   Canon EOS R6m2   6000×4000   2026-01-11 15:03   Monterey</text>
  <text x="922" y="916" fill="#D6B084" font-family="SF Pro Text, Inter, sans-serif" font-size="11">Matched via stem + camera</text>

  <text x="1192" y="70" fill="#7A848D" font-family="SF Pro Text, Inter, sans-serif" font-size="10" letter-spacing="1.8">INSPECTOR</text>
  <rect x="1188" y="82" width="240" height="150" rx="10" fill="#1E1E1E"/>
  <rect x="1200" y="94" width="216" height="108" rx="8" fill="url(#c)"/>
  <text x="1200" y="218" fill="#EEF2F5" font-family="SF Pro Text, Inter, sans-serif" font-size="12" font-weight="600">0Y1A6360</text>

  <text x="1192" y="260" fill="#7A848D" font-family="SF Pro Text, Inter, sans-serif" font-size="10" letter-spacing="1.8">INFO</text>
  <rect x="1188" y="272" width="240" height="158" rx="10" fill="#1E1E1E"/>
  <text x="1200" y="296" fill="#87919A" font-family="SF Pro Text, Inter, sans-serif" font-size="10">Path</text>
  <text x="1200" y="316" fill="#EEF2F5" font-family="SF Pro Text, Inter, sans-serif" font-size="11">/Desktop/Export/0Y1A6360.jpg</text>
  <text x="1200" y="344" fill="#87919A" font-family="SF Pro Text, Inter, sans-serif" font-size="10">RAW</text>
  <text x="1200" y="364" fill="#EEF2F5" font-family="SF Pro Text, Inter, sans-serif" font-size="11">/RAW/2026/.../0Y1A6360.CR3</text>
  <text x="1200" y="392" fill="#87919A" font-family="SF Pro Text, Inter, sans-serif" font-size="10">Lineage</text>
  <text x="1200" y="412" fill="#EEF2F5" font-family="SF Pro Text, Inter, sans-serif" font-size="11">RAW -> Export -> Cover Draft</text>

  <text x="1192" y="458" fill="#7A848D" font-family="SF Pro Text, Inter, sans-serif" font-size="10" letter-spacing="1.8">METADATA</text>
  <rect x="1188" y="470" width="240" height="172" rx="10" fill="#1E1E1E"/>
  <text x="1200" y="496" fill="#87919A" font-family="SF Pro Text, Inter, sans-serif" font-size="10">Camera</text>
  <text x="1290" y="496" fill="#EEF2F5" font-family="SF Pro Text, Inter, sans-serif" font-size="11">Canon EOS R6m2</text>
  <text x="1200" y="524" fill="#87919A" font-family="SF Pro Text, Inter, sans-serif" font-size="10">Lens</text>
  <text x="1290" y="524" fill="#EEF2F5" font-family="SF Pro Text, Inter, sans-serif" font-size="11">EF70-200mm f/2.8L</text>
  <text x="1200" y="552" fill="#87919A" font-family="SF Pro Text, Inter, sans-serif" font-size="10">Capture</text>
  <text x="1290" y="552" fill="#EEF2F5" font-family="SF Pro Text, Inter, sans-serif" font-size="11">2026-01-11 15:03:52</text>
  <text x="1200" y="580" fill="#87919A" font-family="SF Pro Text, Inter, sans-serif" font-size="10">Match</text>
  <text x="1290" y="580" fill="#A9D5A8" font-family="SF Pro Text, Inter, sans-serif" font-size="11">0.94 auto-bound</text>
  <text x="1200" y="608" fill="#87919A" font-family="SF Pro Text, Inter, sans-serif" font-size="10">Draft</text>
  <text x="1290" y="608" fill="#EEF2F5" font-family="SF Pro Text, Inter, sans-serif" font-size="11">Instagram cover</text>

  <text x="1192" y="670" fill="#7A848D" font-family="SF Pro Text, Inter, sans-serif" font-size="10" letter-spacing="1.8">ACTIONS</text>
  <rect x="1188" y="682" width="240" height="124" rx="10" fill="#1E1E1E"/>
  <rect x="1200" y="696" width="102" height="30" rx="8" fill="#C18A54"/>
  <text x="1230" y="715" fill="#101417" font-family="SF Pro Text, Inter, sans-serif" font-size="11" font-weight="700">Locate RAW</text>
  <rect x="1312" y="696" width="104" height="30" rx="8" fill="#2E373F"/>
  <text x="1332" y="715" fill="#EEF2F5" font-family="SF Pro Text, Inter, sans-serif" font-size="11">Reveal Export</text>
  <rect x="1200" y="736" width="216" height="30" rx="8" fill="#2E373F"/>
  <text x="1260" y="755" fill="#EEF2F5" font-family="SF Pro Text, Inter, sans-serif" font-size="11">Open Draft</text>

  <defs>
    <linearGradient id="a" x1="280" y1="120" x2="412" y2="244" gradientUnits="userSpaceOnUse"><stop stop-color="#61778B"/><stop offset="1" stop-color="#CBA47A"/></linearGradient>
    <linearGradient id="b" x1="424" y1="120" x2="556" y2="244" gradientUnits="userSpaceOnUse"><stop stop-color="#3E5A67"/><stop offset="1" stop-color="#D0B28A"/></linearGradient>
    <linearGradient id="c" x1="568" y1="120" x2="700" y2="244" gradientUnits="userSpaceOnUse"><stop stop-color="#6C8299"/><stop offset="1" stop-color="#E3C29A"/></linearGradient>
    <linearGradient id="d" x1="712" y1="120" x2="844" y2="244" gradientUnits="userSpaceOnUse"><stop stop-color="#6B5B57"/><stop offset="1" stop-color="#B88E67"/></linearGradient>
    <linearGradient id="e" x1="856" y1="120" x2="988" y2="244" gradientUnits="userSpaceOnUse"><stop stop-color="#55707A"/><stop offset="1" stop-color="#C9A174"/></linearGradient>
    <linearGradient id="f" x1="1000" y1="120" x2="1132" y2="244" gradientUnits="userSpaceOnUse"><stop stop-color="#51636F"/><stop offset="1" stop-color="#D1B089"/></linearGradient>
    <linearGradient id="g" x1="280" y1="296" x2="412" y2="420" gradientUnits="userSpaceOnUse"><stop stop-color="#546C7A"/><stop offset="1" stop-color="#A8B9C2"/></linearGradient>
    <linearGradient id="h" x1="424" y1="296" x2="556" y2="420" gradientUnits="userSpaceOnUse"><stop stop-color="#5F7569"/><stop offset="1" stop-color="#CAB391"/></linearGradient>
    <linearGradient id="i" x1="568" y1="296" x2="700" y2="420" gradientUnits="userSpaceOnUse"><stop stop-color="#7F604D"/><stop offset="1" stop-color="#D4C09B"/></linearGradient>
    <linearGradient id="j" x1="712" y1="296" x2="844" y2="420" gradientUnits="userSpaceOnUse"><stop stop-color="#60718A"/><stop offset="1" stop-color="#C8A57B"/></linearGradient>
    <linearGradient id="k" x1="856" y1="296" x2="988" y2="420" gradientUnits="userSpaceOnUse"><stop stop-color="#60796A"/><stop offset="1" stop-color="#D5C2A2"/></linearGradient>
    <linearGradient id="l" x1="1000" y1="296" x2="1132" y2="420" gradientUnits="userSpaceOnUse"><stop stop-color="#4E6272"/><stop offset="1" stop-color="#D3A97F"/></linearGradient>
    <linearGradient id="m" x1="280" y1="472" x2="412" y2="596" gradientUnits="userSpaceOnUse"><stop stop-color="#576A7B"/><stop offset="1" stop-color="#CFB08C"/></linearGradient>
    <linearGradient id="n" x1="424" y1="472" x2="556" y2="596" gradientUnits="userSpaceOnUse"><stop stop-color="#4C666F"/><stop offset="1" stop-color="#C7A078"/></linearGradient>
    <linearGradient id="o" x1="568" y1="472" x2="700" y2="596" gradientUnits="userSpaceOnUse"><stop stop-color="#645C53"/><stop offset="1" stop-color="#C8AE8E"/></linearGradient>
    <linearGradient id="p" x1="712" y1="472" x2="844" y2="596" gradientUnits="userSpaceOnUse"><stop stop-color="#507072"/><stop offset="1" stop-color="#C5A57B"/></linearGradient>
    <linearGradient id="q" x1="856" y1="472" x2="988" y2="596" gradientUnits="userSpaceOnUse"><stop stop-color="#5A7588"/><stop offset="1" stop-color="#D5BE99"/></linearGradient>
    <linearGradient id="r" x1="1000" y1="472" x2="1132" y2="596" gradientUnits="userSpaceOnUse"><stop stop-color="#58706C"/><stop offset="1" stop-color="#C8A480"/></linearGradient>
  </defs>
</svg>
