<svg width="1440" height="960" viewBox="0 0 1440 960" fill="none" xmlns="http://www.w3.org/2000/svg">
  <rect width="1440" height="960" fill="#101010"/>
  <rect x="0" y="0" width="1440" height="42" fill="#131313"/>
  <rect x="0" y="42" width="248" height="918" fill="#171717"/>
  <rect x="248" y="42" width="928" height="918" fill="#101010"/>
  <rect x="1176" y="42" width="264" height="918" fill="#171717"/>

  <circle cx="18" cy="21" r="6" fill="#EC6A5E"/>
  <circle cx="38" cy="21" r="6" fill="#F4BD50"/>
  <circle cx="58" cy="21" r="6" fill="#61C454"/>
  <text x="88" y="26" fill="#F3F3F3" font-family="SF Pro Display, Inter, sans-serif" font-size="14" font-weight="600">Library</text>
  <text x="1264" y="26" fill="#8E8E8E" font-family="SF Pro Text, Inter, sans-serif" font-size="11">workspace.mwcatalog</text>

  <text x="20" y="74" fill="#7C7C7C" font-family="SF Pro Text, Inter, sans-serif" font-size="10" letter-spacing="1.8">LIBRARY</text>
  <rect x="12" y="86" width="224" height="28" rx="8" fill="#222222"/>
  <text x="24" y="104" fill="#F2F2F2" font-family="SF Pro Text, Inter, sans-serif" font-size="12" font-weight="600">All Assets</text>
  <text x="196" y="104" fill="#A6A6A6" font-family="SF Pro Text, Inter, sans-serif" font-size="11">10658</text>
  <text x="24" y="134" fill="#C8C8C8" font-family="SF Pro Text, Inter, sans-serif" font-size="12">Recently Added</text>
  <text x="196" y="134" fill="#7C7C7C" font-family="SF Pro Text, Inter, sans-serif" font-size="11">328</text>
  <text x="24" y="162" fill="#C8C8C8" font-family="SF Pro Text, Inter, sans-serif" font-size="12">Favorites</text>
  <text x="196" y="162" fill="#7C7C7C" font-family="SF Pro Text, Inter, sans-serif" font-size="11">42</text>

  <text x="20" y="214" fill="#7C7C7C" font-family="SF Pro Text, Inter, sans-serif" font-size="10" letter-spacing="1.8">SMART COLLECTIONS</text>
  <text x="24" y="240" fill="#C8C8C8" font-family="SF Pro Text, Inter, sans-serif" font-size="12">Needs Review</text>
  <text x="196" y="240" fill="#C97E68" font-family="SF Pro Text, Inter, sans-serif" font-size="11">1495</text>
  <text x="24" y="268" fill="#C8C8C8" font-family="SF Pro Text, Inter, sans-serif" font-size="12">Matched Exports</text>
  <text x="196" y="268" fill="#7C7C7C" font-family="SF Pro Text, Inter, sans-serif" font-size="11">1597</text>
  <text x="24" y="296" fill="#C8C8C8" font-family="SF Pro Text, Inter, sans-serif" font-size="12">Has Preview</text>
  <text x="196" y="296" fill="#7C7C7C" font-family="SF Pro Text, Inter, sans-serif" font-size="11">866</text>
  <text x="24" y="324" fill="#C8C8C8" font-family="SF Pro Text, Inter, sans-serif" font-size="12">Publishing Ready</text>
  <text x="196" y="324" fill="#7C7C7C" font-family="SF Pro Text, Inter, sans-serif" font-size="11">214</text>

  <text x="20" y="380" fill="#7C7C7C" font-family="SF Pro Text, Inter, sans-serif" font-size="10" letter-spacing="1.8">FOLDERS</text>
  <text x="24" y="406" fill="#C8C8C8" font-family="SF Pro Text, Inter, sans-serif" font-size="12">RAW / 2026</text>
  <text x="196" y="406" fill="#7C7C7C" font-family="SF Pro Text, Inter, sans-serif" font-size="11">7566</text>
  <text x="40" y="432" fill="#F2F2F2" font-family="SF Pro Text, Inter, sans-serif" font-size="12">260111 Monterey</text>
  <text x="196" y="432" fill="#7C7C7C" font-family="SF Pro Text, Inter, sans-serif" font-size="11">482</text>
  <text x="40" y="458" fill="#C8C8C8" font-family="SF Pro Text, Inter, sans-serif" font-size="12">260110 San Francisco</text>
  <text x="196" y="458" fill="#7C7C7C" font-family="SF Pro Text, Inter, sans-serif" font-size="11">318</text>
  <text x="24" y="494" fill="#C8C8C8" font-family="SF Pro Text, Inter, sans-serif" font-size="12">Export</text>
  <text x="196" y="494" fill="#7C7C7C" font-family="SF Pro Text, Inter, sans-serif" font-size="11">3092</text>

  <rect x="20" y="904" width="208" height="36" rx="8" fill="#202020"/>
  <text x="36" y="927" fill="#B2B2B2" font-family="SF Pro Text, Inter, sans-serif" font-size="12">Filter</text>
  <text x="188" y="927" fill="#7C7C7C" font-family="SF Pro Text, Inter, sans-serif" font-size="12">⌄</text>

  <rect x="280" y="60" width="250" height="32" rx="8" fill="#1B1B1B"/>
  <text x="318" y="81" fill="#7D7D7D" font-family="SF Pro Text, Inter, sans-serif" font-size="12">Search assets, shoots, drafts</text>
  <circle cx="300" cy="75" r="6" stroke="#7D7D7D" stroke-width="1.5"/>
  <line x1="305" y1="80" x2="311" y2="86" stroke="#7D7D7D" stroke-width="1.5"/>

  <rect x="548" y="60" width="82" height="32" rx="8" fill="#1B1B1B"/>
  <text x="572" y="81" fill="#EAEAEA" font-family="SF Pro Text, Inter, sans-serif" font-size="12">Filter</text>
  <text x="602" y="81" fill="#7C7C7C" font-family="SF Pro Text, Inter, sans-serif" font-size="11">⌄</text>

  <rect x="644" y="60" width="110" height="32" rx="8" fill="#1B1B1B"/>
  <text x="668" y="81" fill="#EAEAEA" font-family="SF Pro Text, Inter, sans-serif" font-size="12">Sort by Date</text>
  <text x="732" y="81" fill="#7C7C7C" font-family="SF Pro Text, Inter, sans-serif" font-size="11">⌄</text>

  <rect x="768" y="60" width="132" height="32" rx="8" fill="#1B1B1B"/>
  <rect x="776" y="66" width="44" height="20" rx="10" fill="#C49452"/>
  <text x="790" y="80" fill="#101010" font-family="SF Pro Text, Inter, sans-serif" font-size="11" font-weight="700">All</text>
  <text x="834" y="80" fill="#EAEAEA" font-family="SF Pro Text, Inter, sans-serif" font-size="11">Matched</text>
  <text x="882" y="80" fill="#EAEAEA" font-family="SF Pro Text, Inter, sans-serif" font-size="11">×</text>

  <text x="1096" y="81" fill="#8E8E8E" font-family="SF Pro Text, Inter, sans-serif" font-size="11">Size M</text>

  <g>
    <rect x="280" y="118" width="136" height="212" rx="10" fill="#101010"/>
    <rect x="280" y="118" width="136" height="170" rx="10" fill="url(#t1)"/>
    <text x="288" y="308" fill="#F2F2F2" font-family="SF Pro Text, Inter, sans-serif" font-size="11" font-weight="600">0Y1A6380-Edit</text>
    <text x="288" y="324" fill="#A8A8A8" font-family="SF Pro Text, Inter, sans-serif" font-size="10">Matched</text>
  </g>
  <g>
    <rect x="428" y="118" width="136" height="212" rx="10" fill="#101010"/>
    <rect x="428" y="118" width="136" height="170" rx="10" fill="url(#t2)"/>
    <text x="436" y="308" fill="#F2F2F2" font-family="SF Pro Text, Inter, sans-serif" font-size="11" font-weight="600">0Y1A6352</text>
    <text x="436" y="324" fill="#A8A8A8" font-family="SF Pro Text, Inter, sans-serif" font-size="10">Export</text>
  </g>
  <g>
    <rect x="576" y="118" width="136" height="212" rx="10" fill="#101010" stroke="#C49452" stroke-width="2"/>
    <rect x="576" y="118" width="136" height="170" rx="10" fill="url(#t3)"/>
    <text x="584" y="308" fill="#F2F2F2" font-family="SF Pro Text, Inter, sans-serif" font-size="11" font-weight="600">0Y1A6360</text>
    <text x="584" y="324" fill="#C49452" font-family="SF Pro Text, Inter, sans-serif" font-size="10">Selected</text>
  </g>
  <g>
    <rect x="724" y="118" width="136" height="212" rx="10" fill="#101010"/>
    <rect x="724" y="118" width="136" height="170" rx="10" fill="url(#t4)"/>
    <text x="732" y="308" fill="#F2F2F2" font-family="SF Pro Text, Inter, sans-serif" font-size="11" font-weight="600">0Y1A0040</text>
    <text x="732" y="324" fill="#C97E68" font-family="SF Pro Text, Inter, sans-serif" font-size="10">Unmatched</text>
  </g>
  <g>
    <rect x="872" y="118" width="136" height="212" rx="10" fill="#101010"/>
    <rect x="872" y="118" width="136" height="170" rx="10" fill="url(#t5)"/>
    <text x="880" y="308" fill="#F2F2F2" font-family="SF Pro Text, Inter, sans-serif" font-size="11" font-weight="600">0Y1A5686</text>
    <text x="880" y="324" fill="#A8A8A8" font-family="SF Pro Text, Inter, sans-serif" font-size="10">Matched</text>
  </g>
  <g>
    <rect x="1020" y="118" width="136" height="212" rx="10" fill="#101010"/>
    <rect x="1020" y="118" width="136" height="170" rx="10" fill="url(#t6)"/>
    <text x="1028" y="308" fill="#F2F2F2" font-family="SF Pro Text, Inter, sans-serif" font-size="11" font-weight="600">0Y1A5832-2</text>
    <text x="1028" y="324" fill="#A8A8A8" font-family="SF Pro Text, Inter, sans-serif" font-size="10">Variant</text>
  </g>

  <g>
    <rect x="280" y="344" width="136" height="212" rx="10" fill="#101010"/>
    <rect x="280" y="344" width="136" height="170" rx="10" fill="url(#t7)"/>
    <text x="288" y="534" fill="#F2F2F2" font-family="SF Pro Text, Inter, sans-serif" font-size="11" font-weight="600">0Y1A5901</text>
  </g>
  <g>
    <rect x="428" y="344" width="136" height="212" rx="10" fill="#101010"/>
    <rect x="428" y="344" width="136" height="170" rx="10" fill="url(#t8)"/>
    <text x="436" y="534" fill="#F2F2F2" font-family="SF Pro Text, Inter, sans-serif" font-size="11" font-weight="600">0Y1A5960</text>
  </g>
  <g>
    <rect x="576" y="344" width="136" height="212" rx="10" fill="#101010"/>
    <rect x="576" y="344" width="136" height="170" rx="10" fill="url(#t9)"/>
    <text x="584" y="534" fill="#F2F2F2" font-family="SF Pro Text, Inter, sans-serif" font-size="11" font-weight="600">0Y1A6011</text>
  </g>
  <g>
    <rect x="724" y="344" width="136" height="212" rx="10" fill="#101010"/>
    <rect x="724" y="344" width="136" height="170" rx="10" fill="url(#t10)"/>
    <text x="732" y="534" fill="#F2F2F2" font-family="SF Pro Text, Inter, sans-serif" font-size="11" font-weight="600">0Y1A6039</text>
  </g>
  <g>
    <rect x="872" y="344" width="136" height="212" rx="10" fill="#101010"/>
    <rect x="872" y="344" width="136" height="170" rx="10" fill="url(#t11)"/>
    <text x="880" y="534" fill="#F2F2F2" font-family="SF Pro Text, Inter, sans-serif" font-size="11" font-weight="600">0Y1A6102</text>
  </g>
  <g>
    <rect x="1020" y="344" width="136" height="212" rx="10" fill="#101010"/>
    <rect x="1020" y="344" width="136" height="170" rx="10" fill="url(#t12)"/>
    <text x="1028" y="534" fill="#F2F2F2" font-family="SF Pro Text, Inter, sans-serif" font-size="11" font-weight="600">0Y1A6155</text>
  </g>

  <g>
    <rect x="280" y="570" width="136" height="212" rx="10" fill="#101010"/>
    <rect x="280" y="570" width="136" height="170" rx="10" fill="url(#t13)"/>
    <text x="288" y="760" fill="#F2F2F2" font-family="SF Pro Text, Inter, sans-serif" font-size="11" font-weight="600">0Y1A6218</text>
  </g>
  <g>
    <rect x="428" y="570" width="136" height="212" rx="10" fill="#101010"/>
    <rect x="428" y="570" width="136" height="170" rx="10" fill="url(#t14)"/>
    <text x="436" y="760" fill="#F2F2F2" font-family="SF Pro Text, Inter, sans-serif" font-size="11" font-weight="600">0Y1A6290</text>
  </g>
  <g>
    <rect x="576" y="570" width="136" height="212" rx="10" fill="#101010"/>
    <rect x="576" y="570" width="136" height="170" rx="10" fill="url(#t15)"/>
    <text x="584" y="760" fill="#F2F2F2" font-family="SF Pro Text, Inter, sans-serif" font-size="11" font-weight="600">0Y1A6331</text>
  </g>
  <g>
    <rect x="724" y="570" width="136" height="212" rx="10" fill="#101010"/>
    <rect x="724" y="570" width="136" height="170" rx="10" fill="url(#t16)"/>
    <text x="732" y="760" fill="#F2F2F2" font-family="SF Pro Text, Inter, sans-serif" font-size="11" font-weight="600">0Y1A6358</text>
  </g>
  <g>
    <rect x="872" y="570" width="136" height="212" rx="10" fill="#101010"/>
    <rect x="872" y="570" width="136" height="170" rx="10" fill="url(#t17)"/>
    <text x="880" y="760" fill="#F2F2F2" font-family="SF Pro Text, Inter, sans-serif" font-size="11" font-weight="600">0Y1A6370</text>
  </g>
  <g>
    <rect x="1020" y="570" width="136" height="212" rx="10" fill="#101010"/>
    <rect x="1020" y="570" width="136" height="170" rx="10" fill="url(#t18)"/>
    <text x="1028" y="760" fill="#F2F2F2" font-family="SF Pro Text, Inter, sans-serif" font-size="11" font-weight="600">0Y1A6388</text>
  </g>

  <text x="1196" y="74" fill="#7C7C7C" font-family="SF Pro Text, Inter, sans-serif" font-size="10" letter-spacing="1.8">DETAIL</text>
  <rect x="1200" y="92" width="192" height="274" rx="12" fill="url(#t3)"/>
  <text x="1200" y="392" fill="#F2F2F2" font-family="SF Pro Text, Inter, sans-serif" font-size="12" font-weight="600">0Y1A6360</text>
  <text x="1200" y="412" fill="#A8A8A8" font-family="SF Pro Text, Inter, sans-serif" font-size="11">RAW -> Export -> Cover Draft</text>

  <text x="1196" y="454" fill="#7C7C7C" font-family="SF Pro Text, Inter, sans-serif" font-size="10" letter-spacing="1.8">INFO</text>
  <text x="1200" y="482" fill="#8A8A8A" font-family="SF Pro Text, Inter, sans-serif" font-size="10">Camera</text>
  <text x="1280" y="482" fill="#F2F2F2" font-family="SF Pro Text, Inter, sans-serif" font-size="11">Canon EOS R6m2</text>
  <text x="1200" y="510" fill="#8A8A8A" font-family="SF Pro Text, Inter, sans-serif" font-size="10">Lens</text>
  <text x="1280" y="510" fill="#F2F2F2" font-family="SF Pro Text, Inter, sans-serif" font-size="11">EF70-200mm f/2.8L</text>
  <text x="1200" y="538" fill="#8A8A8A" font-family="SF Pro Text, Inter, sans-serif" font-size="10">Capture</text>
  <text x="1280" y="538" fill="#F2F2F2" font-family="SF Pro Text, Inter, sans-serif" font-size="11">2026-01-11 15:03</text>
  <text x="1200" y="566" fill="#8A8A8A" font-family="SF Pro Text, Inter, sans-serif" font-size="10">Match</text>
  <text x="1280" y="566" fill="#93BB8D" font-family="SF Pro Text, Inter, sans-serif" font-size="11">auto-bound 0.94</text>
  <text x="1200" y="594" fill="#8A8A8A" font-family="SF Pro Text, Inter, sans-serif" font-size="10">Draft</text>
  <text x="1280" y="594" fill="#F2F2F2" font-family="SF Pro Text, Inter, sans-serif" font-size="11">Instagram cover</text>

  <text x="1196" y="650" fill="#7C7C7C" font-family="SF Pro Text, Inter, sans-serif" font-size="10" letter-spacing="1.8">ACTIONS</text>
  <rect x="1200" y="668" width="96" height="32" rx="8" fill="#C49452"/>
  <text x="1228" y="689" fill="#101010" font-family="SF Pro Text, Inter, sans-serif" font-size="11" font-weight="700">Locate RAW</text>
  <rect x="1304" y="668" width="96" height="32" rx="8" fill="#202020"/>
  <text x="1326" y="689" fill="#ECECEC" font-family="SF Pro Text, Inter, sans-serif" font-size="11">Reveal Export</text>
  <rect x="1200" y="714" width="200" height="32" rx="8" fill="#202020"/>
  <text x="1260" y="735" fill="#ECECEC" font-family="SF Pro Text, Inter, sans-serif" font-size="11">Open Draft</text>

  <defs>
    <linearGradient id="t1" x1="280" y1="118" x2="416" y2="288" gradientUnits="userSpaceOnUse"><stop stop-color="#6C7E8E"/><stop offset="1" stop-color="#D0AE86"/></linearGradient>
    <linearGradient id="t2" x1="428" y1="118" x2="564" y2="288" gradientUnits="userSpaceOnUse"><stop stop-color="#536A6D"/><stop offset="1" stop-color="#C9B59C"/></linearGradient>
    <linearGradient id="t3" x1="576" y1="118" x2="712" y2="288" gradientUnits="userSpaceOnUse"><stop stop-color="#73859A"/><stop offset="1" stop-color="#E0BC92"/></linearGradient>
    <linearGradient id="t4" x1="724" y1="118" x2="860" y2="288" gradientUnits="userSpaceOnUse"><stop stop-color="#6D625B"/><stop offset="1" stop-color="#B9936D"/></linearGradient>
    <linearGradient id="t5" x1="872" y1="118" x2="1008" y2="288" gradientUnits="userSpaceOnUse"><stop stop-color="#537075"/><stop offset="1" stop-color="#C9A273"/></linearGradient>
    <linearGradient id="t6" x1="1020" y1="118" x2="1156" y2="288" gradientUnits="userSpaceOnUse"><stop stop-color="#59666A"/><stop offset="1" stop-color="#D0B18B"/></linearGradient>
    <linearGradient id="t7" x1="280" y1="344" x2="416" y2="514" gradientUnits="userSpaceOnUse"><stop stop-color="#5F7080"/><stop offset="1" stop-color="#AFC0CB"/></linearGradient>
    <linearGradient id="t8" x1="428" y1="344" x2="564" y2="514" gradientUnits="userSpaceOnUse"><stop stop-color="#5F7568"/><stop offset="1" stop-color="#CCB28D"/></linearGradient>
    <linearGradient id="t9" x1="576" y1="344" x2="712" y2="514" gradientUnits="userSpaceOnUse"><stop stop-color="#7F6655"/><stop offset="1" stop-color="#D4C09C"/></linearGradient>
    <linearGradient id="t10" x1="724" y1="344" x2="860" y2="514" gradientUnits="userSpaceOnUse"><stop stop-color="#677992"/><stop offset="1" stop-color="#C9A57A"/></linearGradient>
    <linearGradient id="t11" x1="872" y1="344" x2="1008" y2="514" gradientUnits="userSpaceOnUse"><stop stop-color="#627C6D"/><stop offset="1" stop-color="#D8C5A4"/></linearGradient>
    <linearGradient id="t12" x1="1020" y1="344" x2="1156" y2="514" gradientUnits="userSpaceOnUse"><stop stop-color="#526575"/><stop offset="1" stop-color="#D2AA81"/></linearGradient>
    <linearGradient id="t13" x1="280" y1="570" x2="416" y2="740" gradientUnits="userSpaceOnUse"><stop stop-color="#5D6C7A"/><stop offset="1" stop-color="#D2B18E"/></linearGradient>
    <linearGradient id="t14" x1="428" y1="570" x2="564" y2="740" gradientUnits="userSpaceOnUse"><stop stop-color="#536D72"/><stop offset="1" stop-color="#C8A379"/></linearGradient>
    <linearGradient id="t15" x1="576" y1="570" x2="712" y2="740" gradientUnits="userSpaceOnUse"><stop stop-color="#675D56"/><stop offset="1" stop-color="#CCB08F"/></linearGradient>
    <linearGradient id="t16" x1="724" y1="570" x2="860" y2="740" gradientUnits="userSpaceOnUse"><stop stop-color="#507072"/><stop offset="1" stop-color="#C5A57B"/></linearGradient>
    <linearGradient id="t17" x1="872" y1="570" x2="1008" y2="740" gradientUnits="userSpaceOnUse"><stop stop-color="#5C7387"/><stop offset="1" stop-color="#D5BE99"/></linearGradient>
    <linearGradient id="t18" x1="1020" y1="570" x2="1156" y2="740" gradientUnits="userSpaceOnUse"><stop stop-color="#5C756C"/><stop offset="1" stop-color="#CAA480"/></linearGradient>
  </defs>
</svg>
